<?xml version="1.0" encoding="UTF-8" standalone="no"?>
<!DOCTYPE svg PUBLIC "-//W3C//DTD SVG 1.1//EN" "http://www.w3.org/Graphics/SVG/1.1/DTD/svg11.dtd">
<svg width="100%" height="100%" viewBox="0 0 2213 2300" version="1.1" xmlns="http://www.w3.org/2000/svg" xmlns:xlink="http://www.w3.org/1999/xlink" xml:space="preserve" xmlns:serif="http://www.serif.com/" style="fill-rule:evenodd;clip-rule:evenodd;stroke-linejoin:round;stroke-miterlimit:2;">
    <g transform="matrix(17.9985,0,0,17.9985,-5212.67,-5945.59)">
        <g transform="matrix(1,0,0,1,350.609,452.706)">
            <path d="M0,-118.275C-33.347,-118.275 -60.388,-91.24 -60.388,-57.887C-60.388,-31.207 -43.085,-8.571 -19.091,-0.586C-16.073,-0.027 -14.965,-1.896 -14.965,-3.491C-14.965,-4.93 -15.021,-9.688 -15.047,-14.734C-31.847,-11.081 -35.392,-21.859 -35.392,-21.859C-38.139,-28.838 -42.097,-30.695 -42.097,-30.695C-47.576,-34.443 -41.684,-34.366 -41.684,-34.366C-35.62,-33.94 -32.427,-28.142 -32.427,-28.142C-27.041,-18.911 -18.3,-21.58 -14.854,-23.123C-14.311,-27.025 -12.747,-29.69 -11.02,-31.198C-24.433,-32.724 -38.533,-37.903 -38.533,-61.042C-38.533,-67.634 -36.174,-73.021 -32.311,-77.25C-32.938,-78.772 -35.005,-84.914 -31.725,-93.232C-31.725,-93.232 -26.654,-94.854 -15.115,-87.041C-10.298,-88.379 -5.132,-89.05 0,-89.074C5.132,-89.05 10.302,-88.379 15.128,-87.041C26.654,-94.854 31.718,-93.232 31.718,-93.232C35.005,-84.914 32.938,-78.772 32.311,-77.25C36.183,-73.021 38.525,-67.634 38.525,-61.042C38.525,-37.847 24.398,-32.741 10.951,-31.246C13.117,-29.372 15.047,-25.697 15.047,-20.063C15.047,-11.983 14.978,-5.48 14.978,-3.491C14.978,-1.883 16.064,0 19.125,-0.593C43.107,-8.587 60.388,-31.215 60.388,-57.887C60.388,-91.24 33.351,-118.275 0,-118.275" style="fill:rgb(205,25,42);"/>
        </g>
        <g transform="matrix(0.416754,-0.909019,-0.909019,-0.416754,312.966,420.21)">
            <path d="M-0.787,-0.501C-1.116,-0.505 -1.395,-0.114 -1.386,0.363C-1.39,0.844 -1.12,1.238 -0.787,1.234C-0.453,1.244 -0.178,0.851 -0.183,0.367C-0.179,-0.113 -0.451,-0.513 -0.787,-0.501" style="fill:rgb(205,25,42);fill-rule:nonzero;"/>
        </g>
        <g transform="matrix(0.736237,-0.676724,-0.676724,-0.736237,315.874,423.187)">
            <path d="M-0.704,-0.272C-1.097,-0.273 -1.428,0.2 -1.423,0.768C-1.429,1.346 -1.102,1.811 -0.704,1.812C-0.304,1.807 0.013,1.346 0.019,0.769C0.022,0.187 -0.299,-0.277 -0.704,-0.272" style="fill:rgb(205,25,42);fill-rule:nonzero;"/>
        </g>
        <g transform="matrix(0.825318,-0.564669,-0.564669,-0.825318,318.357,426.79)">
            <path d="M-0.671,-0.208C-1.122,-0.212 -1.486,0.329 -1.491,0.984C-1.493,1.637 -1.129,2.168 -0.671,2.167C-0.216,2.169 0.145,1.639 0.157,0.986C0.154,0.327 -0.21,-0.204 -0.671,-0.208" style="fill:rgb(205,25,42);fill-rule:nonzero;"/>
        </g>
        <g transform="matrix(0.683223,-0.730209,-0.730209,-0.683223,321.533,429.735)">
            <path d="M-0.945,-0.403C-1.438,-0.411 -1.848,0.171 -1.837,0.888C-1.842,1.606 -1.438,2.185 -0.945,2.193C-0.448,2.198 -0.039,1.61 -0.044,0.892C-0.041,0.178 -0.441,-0.414 -0.945,-0.403" style="fill:rgb(205,25,42);fill-rule:nonzero;"/>
        </g>
        <g transform="matrix(0.287945,-0.957647,-0.957647,-0.287945,325.159,431.184)">
            <path d="M-1.255,-0.923C-1.751,-0.919 -2.151,-0.331 -2.155,0.382C-2.154,1.096 -1.753,1.683 -1.255,1.688C-0.758,1.69 -0.348,1.101 -0.355,0.379C-0.356,-0.333 -0.754,-0.921 -1.255,-0.923" style="fill:rgb(205,25,42);fill-rule:nonzero;"/>
        </g>
        <g transform="matrix(-0.0165617,-0.999863,-0.999863,0.0165617,329.293,431.745)">
            <path d="M-1.29,-1.311C-1.788,-1.319 -2.191,-0.733 -2.189,-0.015C-2.194,0.708 -1.78,1.286 -1.29,1.286C-0.787,1.277 -0.388,0.703 -0.387,-0.018C-0.385,-0.737 -0.796,-1.319 -1.29,-1.311" style="fill:rgb(205,25,42);fill-rule:nonzero;"/>
        </g>
        <g transform="matrix(-0.178008,-0.984029,-0.984029,0.178008,333.485,431.24)">
            <path d="M-1.285,-1.533C-1.778,-1.532 -2.18,-0.952 -2.184,-0.227C-2.186,0.486 -1.774,1.071 -1.285,1.073C-0.78,1.07 -0.379,0.482 -0.377,-0.23C-0.382,-0.955 -0.783,-1.532 -1.285,-1.533" style="fill:rgb(205,25,42);fill-rule:nonzero;"/>
        </g>
    </g>
</svg>
