<?xml version="1.0" encoding="UTF-8" standalone="no"?>
<!DOCTYPE svg PUBLIC "-//W3C//DTD SVG 1.1//EN" "http://www.w3.org/Graphics/SVG/1.1/DTD/svg11.dtd">
<svg width="100%" height="100%" viewBox="0 0 500 100" version="1.1" xmlns="http://www.w3.org/2000/svg" xmlns:xlink="http://www.w3.org/1999/xlink" xml:space="preserve" xmlns:serif="http://www.serif.com/" style="fill-rule:evenodd;clip-rule:evenodd;stroke-linejoin:round;stroke-miterlimit:2;">
    <g id="g3841" transform="matrix(0.626469,0,0,0.626469,-639.287,-251.923)">
        <path id="path2896-0" d="M1075.8,412.298C1066.08,412.298 1058.71,412.278 1052.68,412.824C1046.65,413.37 1041.53,414.409 1037.3,417.851C1033.08,421.292 1031.23,426.506 1030.5,431.797C1029.78,437.088 1029.83,443.149 1029.83,451.069C1029.83,458.989 1029.78,465.051 1030.5,470.341C1031.23,475.632 1033.08,480.841 1037.3,484.282C1041.53,487.723 1046.65,488.763 1052.68,489.309C1058.71,489.855 1066.08,489.835 1075.8,489.835L1107.6,489.835L1107.6,514.428C1107.6,522.348 1107.58,528.216 1107.22,532.106C1106.87,535.995 1106.11,537.476 1105.96,537.664C1105.81,537.852 1105.61,538.212 1102.79,538.594C1099.98,538.976 1095.25,539.026 1088.76,539.026L1029.83,539.026L1029.83,553.199L1088.76,553.199C1095.25,553.199 1100.23,553.243 1104.7,552.635C1109.18,552.027 1113.84,550.411 1116.93,546.639C1120.01,542.867 1120.88,538.405 1121.34,533.385C1121.8,528.364 1121.77,522.348 1121.77,514.428L1121.77,475.662L1075.8,475.662C1066.08,475.662 1058.87,475.642 1053.96,475.197C1049.06,474.753 1046.89,473.811 1046.26,473.292C1045.62,472.774 1045.04,472.045 1044.55,468.426C1044.05,464.806 1044,458.989 1044,451.069C1044,443.149 1044.05,437.327 1044.55,433.707C1045.04,430.087 1045.62,429.359 1046.26,428.84C1046.89,428.322 1049.06,427.385 1053.96,426.941C1058.87,426.497 1066.08,426.471 1075.8,426.471L1114.69,426.476L1121.77,426.476L1121.77,412.303L1114.69,412.303L1075.8,412.298Z" style="fill-rule:nonzero;"/>
        <path id="path2904-76" d="M1142.29,412.298L1142.29,514.428C1142.29,522.348 1142.27,528.364 1142.72,533.385C1143.18,538.405 1144.04,542.867 1147.13,546.639C1150.22,550.411 1154.88,552.027 1159.36,552.635C1163.84,553.243 1168.82,553.194 1175.3,553.194L1234.23,553.194L1234.23,539.021L1175.3,539.021C1168.82,539.021 1164.08,538.976 1161.26,538.594C1158.45,538.212 1158.26,537.847 1158.1,537.659C1157.95,537.471 1157.19,535.99 1156.84,532.1C1156.49,528.211 1156.46,522.348 1156.46,514.428L1156.46,412.298L1142.29,412.298Z" style="fill-rule:nonzero;"/>
        <path id="path2904-7-4" d="M1254.75,412.298L1254.75,553.199L1268.92,553.199L1268.92,412.298L1254.75,412.298Z" style="fill-rule:nonzero;"/>
        <path id="path2904-3-2" d="M1322.45,412.303C1315.97,412.303 1310.99,412.254 1306.51,412.862C1302.03,413.47 1297.36,415.086 1294.28,418.858C1291.19,422.63 1290.33,427.092 1289.87,432.112C1289.41,437.133 1289.44,443.149 1289.44,451.069L1289.44,514.428C1289.44,522.348 1289.41,528.364 1289.87,533.385C1290.33,538.405 1291.19,542.867 1294.28,546.639C1297.36,550.411 1302.03,552.027 1306.51,552.635C1310.99,553.243 1315.97,553.194 1322.45,553.194L1381.38,553.194L1381.38,539.021L1322.45,539.021C1315.97,539.021 1311.23,538.976 1308.41,538.594C1305.6,538.212 1305.4,537.847 1305.25,537.659C1305.09,537.471 1304.34,535.99 1303.98,532.1C1303.63,528.211 1303.61,522.348 1303.61,514.428C1303.61,506.508 1303.63,500.645 1303.98,496.756C1304.34,492.866 1305.09,491.385 1305.25,491.197C1305.4,491.009 1305.6,490.649 1308.41,490.267C1311.23,489.885 1315.97,489.835 1322.45,489.835L1348.37,489.835L1348.37,475.662L1322.45,475.662C1315.97,475.662 1311.23,475.612 1308.41,475.23C1305.6,474.848 1305.4,474.488 1305.25,474.3C1305.09,474.112 1304.34,472.631 1303.98,468.741C1303.63,464.852 1303.61,458.989 1303.61,451.069C1303.61,443.149 1303.63,437.281 1303.98,433.391C1304.34,429.502 1305.09,428.021 1305.25,427.833C1305.4,427.645 1305.6,427.285 1308.41,426.903C1311.23,426.521 1315.97,426.476 1322.45,426.476L1381.38,426.476L1381.38,412.303L1322.45,412.303Z" style="fill-rule:nonzero;"/>
        <g id="g3759" transform="matrix(1,0,0,1,-221.765,0)">
            <g id="path3004-9" transform="matrix(1,0,0,1,0,-159.924)">
                <path id="path3228-7" d="M1634.11,573.567L1623.66,582.57L1658.47,649.759L1732.75,649.759L1767.56,582.57L1757.11,573.567L1695.61,618.086L1634.11,573.567Z" style="fill:rgb(205,25,42);fill-rule:nonzero;"/>
            </g>
            <g id="path3004-7-3" transform="matrix(1,0,0,1,0,-159.924)">
                <path id="path3232-0" d="M1658.47,635.586L1656.49,639.412L1623.66,702.776L1634.11,711.778L1695.61,667.26L1757.11,711.778L1767.56,702.776L1732.75,635.586L1658.47,635.586Z" style="fill-rule:nonzero;"/>
            </g>
        </g>
        <path id="path3026-5" d="M1612.29,412.298C1598.01,412.298 1587.7,416.907 1580.48,423.387L1580.48,412.303L1566.31,412.303L1566.31,553.199L1580.48,553.199L1580.48,466.909C1580.48,458.989 1580.75,448.216 1584.62,440.328C1588.49,432.441 1594.77,426.471 1612.29,426.471C1629.8,426.471 1636.07,432.441 1639.94,440.328C1643.82,448.216 1644.08,458.989 1644.08,466.909L1644.08,553.199L1658.25,553.199L1658.25,466.909C1658.25,458.989 1658.52,445.997 1652.67,434.083C1646.82,422.17 1633.65,412.298 1612.29,412.298Z" style="fill-rule:nonzero;"/>
        <path id="path2904-7-7-3" d="M1678.77,412.298L1678.77,553.199L1692.95,553.199L1692.95,412.298L1678.77,412.298Z" style="fill-rule:nonzero;"/>
        <path id="path2896-6-5" d="M1759.44,412.298C1749.72,412.298 1742.35,412.278 1736.32,412.824C1730.29,413.37 1725.16,414.409 1720.94,417.851C1716.72,421.292 1714.86,426.506 1714.14,431.797C1713.42,437.088 1713.47,443.149 1713.47,451.069C1713.47,458.989 1713.42,465.051 1714.14,470.341C1714.86,475.632 1716.72,480.841 1720.94,484.282C1725.16,487.723 1730.29,488.763 1736.32,489.309C1742.35,489.855 1749.72,489.835 1759.44,489.835L1791.24,489.835L1791.24,514.428C1791.24,522.348 1791.21,528.216 1790.86,532.106C1790.51,535.995 1789.75,537.476 1789.6,537.664C1789.44,537.852 1789.25,538.212 1786.44,538.594C1783.62,538.976 1778.88,539.026 1772.4,539.026L1713.47,539.026L1713.47,553.199L1772.4,553.199C1778.88,553.199 1783.86,553.243 1788.34,552.635C1792.82,552.027 1797.48,550.411 1800.57,546.639C1803.65,542.867 1804.52,538.405 1804.98,533.385C1805.43,528.364 1805.41,522.348 1805.41,514.428L1805.41,475.662L1759.44,475.662C1749.72,475.662 1742.5,475.642 1737.6,475.197C1732.69,474.753 1730.53,473.811 1729.89,473.292C1729.26,472.774 1728.67,472.045 1728.18,468.426C1727.69,464.806 1727.64,458.989 1727.64,451.069C1727.64,443.149 1727.69,437.332 1728.18,433.712C1728.67,430.093 1729.26,429.359 1729.89,428.84C1730.53,428.322 1732.69,427.386 1737.6,426.941C1742.5,426.497 1749.72,426.471 1759.44,426.471L1798.32,426.476L1805.41,426.476L1805.41,412.303L1798.32,412.303L1759.44,412.298Z" style="fill-rule:nonzero;"/>
    </g>
</svg>
